<svg xmlns="http://www.w3.org/2000/svg" viewBox="0 0 512 512"><style>.joints{fill:#00f2ff}</style><defs><filter id="neon" width="140%" height="140%" x="-20%" y="-20%"><feGaussianBlur result="blur" stdDeviation="4"/><feComposite in="SourceGraphic"/></filter></defs><path d="M256 120c-76 0-106 80-106 160 0 100 50 140 106 140s106-40 106-140c0-80-30-160-106-160m-56 80c0-20 20-30 40-30s40 10 40 30v100c0 20-20 30-40 30s-40-10-40-30Z" style="fill:#2b2b2b;stroke:#00f2ff;stroke-width:8"/><circle cx="240" cy="200" r="10" class="joints"/><circle cx="240" cy="250" r="10" class="joints"/><circle cx="240" cy="300" r="10" class="joints"/><path d="M256 120c-76 0-106 80-106 160 0 100 50 140 106 140s106-40 106-140c0-80-30-160-106-160" style="fill:none;stroke:#ff00e5;stroke-width:4;filter:url(#neon)"/></svg>